<svg width="36" height="36" viewBox="0 0 36 36" fill="none" xmlns="http://www.w3.org/2000/svg"><path d="M18.15 2.25h-.1L4.5 3.59v23.63l13.55 7.66 13.45-7.66V3.6L18.15 2.25ZM29.6 13.83l-11.54-6.5v-.1h-.1l-.1-.1v.1L6.4 13.83V5.22l11.54-1.15 11.64 1.15v8.6ZM17.95 8.76l11.54 6.4-4.51 2.5-7.13-4.02v1.33l5.92 3.35-.9.48-5.02-2.87v1.34l3.81 2.2-.8.48-3.01-1.72v1.34l1.9 1.05-1.8 1.05-11.44-6.4 11.44-6.51ZM6.41 16.7l11.44 6.5v.96l-7.93-4.5V21l8.03 4.6v1.05l-8.03-4.5v1.34l8.03 4.6 8.13-4.7v-4.97l3.41-1.91v9.56l-11.54 6.6-11.54-6.5V16.7Z" fill="#000"/></svg>